<svg version="1.1" id="Layer_1" xmlns="http://www.w3.org/2000/svg" xmlns:xlink="http://www.w3.org/1999/xlink"
	 width="1024" height="1024" viewBox="50 -100 900 900" xml:space="preserve">
<g>
	<path fill="#FFFFFF" d="M621.817,253.052c-14.896,0-26.979,17.39-26.979,38.846c0,21.449,12.093,38.83,26.979,38.83
		c14.886,0,26.981-17.381,26.981-38.83l-0.01-0.009C648.789,270.435,636.694,253.052,621.817,253.052z"/>
	<path fill="#FFFFFF" d="M404.708,253.052c-14.896,0-26.979,17.39-26.979,38.846c0,21.449,12.092,38.83,26.979,38.83
		c14.886,0,26.98-17.381,26.98-38.83l-0.009-0.009C431.68,270.435,419.585,253.052,404.708,253.052z"/>
	<circle fill="#FFFFFF" cx="509.961" cy="342.898" r="10.12"/>
	<path fill="#FFFFFF" d="M531.352,364.341c-1.697-0.599-3.553,0.282-4.15,1.979c-2.607,7.355-9.581,12.292-17.362,12.292
		s-14.756-4.938-17.363-12.292c-0.596-1.686-2.456-2.578-4.15-1.979c-1.686,0.598-2.577,2.453-1.979,4.15l0.016,0.021
		c3.519,9.956,12.948,16.602,23.478,16.602c10.528,0,19.979-6.68,23.495-16.622C533.93,366.794,533.049,364.938,531.352,364.341z"/>
	<path fill="#FFFFFF" d="M946.215,326.299l-0.104-0.048l0.644-3.194c-71.654-14.327-145.187-14.473-189.671-12.623
		c7.308-26.331,9.506-56.628,9.506-90.413c0-48.455-18.204-87.218-47.759-116.715c5.165-16.671,12.062-53.693-6.889-101.089
		c0,0-33.436-10.616-109.063,40c-29.625-7.404-61.154-11.06-92.729-11.06c-34.742,0-69.847,4.424-102.588,13.405
		C329.52-8.678,295.067,2.229,295.067,2.229c-22.488,56.236-8.583,97.876-4.359,108.217
		c-26.432,28.526-42.569,64.942-42.569,109.587c0,33.705,3.837,63.942,13.21,90.222c-44.864-1.633-115.713-1.005-184.81,12.812
		l0.634,3.193c69.514-13.902,140.809-14.385,185.398-12.697c2.065,5.44,4.367,10.718,6.947,15.817
		c-44.096,1.421-119.39,7.041-191.547,27.397l0.89,3.127c72.728-20.506,148.675-25.985,192.343-27.321
		c26.346,49.111,78.29,80.829,170.698,90.79c-13.115,8.813-26.496,23.796-31.918,49.147c-17.873,8.549-74.452,29.416-108.398-28.971
		c0,0-19.002-34.741-55.374-37.462c0,0-35.282-0.54-2.435,21.987c0,0,23.608,11.124,39.896,52.93c0,0,21.249,71.305,123.788,48.428
		v73.654c0,0-2.168,26.053-26.052,34.732c0,0-14.111,9.771,1.092,15.19c0,0,66.205,5.429,66.205-48.835v-80.315
		c0,0-2.626-31.852,13.021-42.924v131.92c0,0-1.081,31.474-17.363,43.414c0,0-10.859,19.531,13.021,14.112
		c0,0,45.584-6.513,47.757-59.695l1.032-133.503h10.957l1.041,133.503c2.168,53.183,47.754,59.695,47.754,59.695
		c23.875,5.419,13.021-14.112,13.021-14.112c-16.279-11.94-17.362-43.414-17.362-43.414V482.074
		c15.638,12.178,13.021,41.782,13.021,41.782v80.316c0,54.266,66.206,48.834,66.206,48.834c15.19-5.419,1.09-15.189,1.09-15.189
		c-23.881-8.681-26.052-34.732-26.052-34.732v-105.28c0-41.054-17.287-62.795-34.192-74.271
		c98.551-9.772,145.842-41.595,167.634-91.036c43.166,1.187,120.85,6.445,195.157,27.406l0.883-3.127
		c-73.883-20.839-151.053-26.231-194.656-27.501c2.065-4.994,3.868-10.188,5.468-15.532
		C800.409,311.904,874.289,311.928,946.215,326.299z M254.89,419.657c-3.893,0-7.059-2.18-7.059-4.88
		c0-2.701,3.166-4.891,7.059-4.891c3.894,0,7.056,2.183,7.059,4.895C261.946,417.479,258.784,419.657,254.89,419.657z
		 M267.376,425.631c0-2.702,3.166-4.891,7.059-4.891c3.894,0,7.056,2.183,7.059,4.895c-0.003,2.697-3.166,4.875-7.059,4.875
		C270.542,430.51,267.376,428.33,267.376,425.631z M279.317,439.749c0-2.701,3.166-4.891,7.059-4.891
		c3.894,0,7.056,2.183,7.059,4.894c0-0.001,0-0.002,0-0.003v0.007c0-0.001,0-0.002,0-0.004c-0.002,2.699-3.165,4.877-7.059,4.877
		C282.483,444.629,279.317,442.449,279.317,439.749z M297.229,460.908c-3.893,0-7.059-2.18-7.059-4.879
		c0-2.702,3.166-4.891,7.059-4.891c3.894,0,7.056,2.182,7.059,4.895C304.285,458.73,301.123,460.908,297.229,460.908z
		 M309.158,476.107c-3.893,0-7.059-2.18-7.059-4.879c0-2.702,3.167-4.892,7.059-4.892c3.894,0,7.057,2.183,7.06,4.896
		C316.215,473.93,313.052,476.107,309.158,476.107z M332.521,484.25c0-0.001,0-0.003,0-0.004c-0.003,2.698-3.166,4.876-7.059,4.876
		c-3.893,0-7.059-2.18-7.059-4.88c0-2.701,3.167-4.891,7.059-4.891c3.894,0,7.056,2.183,7.059,4.895c0-0.001,0-0.003,0-0.004V484.25
		z M348.248,497.813c-3.893,0-7.059-2.18-7.059-4.879c0-2.702,3.167-4.891,7.059-4.891c3.894,0,7.057,2.182,7.06,4.894
		C355.305,495.636,352.142,497.813,348.248,497.813z M378.002,492.941c0-0.001,0-0.002,0-0.004
		c-0.002,2.698-3.165,4.876-7.059,4.876c-3.893,0-7.059-2.18-7.059-4.879c0-2.702,3.166-4.891,7.059-4.891
		c3.894,0,7.056,2.182,7.059,4.894c0-0.001,0-0.002,0-0.003V492.941z M393.96,494.043c-3.893,0-7.06-2.18-7.06-4.88
		c0-2.701,3.167-4.891,7.06-4.891c3.894,0,7.056,2.183,7.059,4.894C401.017,491.865,397.854,494.043,393.96,494.043z
		 M509.354,405.203c-107.431,0-194.504-16.177-194.504-119.985c0-24.854,12.242-47.931,33.206-67.083
		c34.969-31.918,94.151-15.018,161.296-15.018c66.844-0.009,125.823-17.082,160.843,14.618l0.012,0.011
		c21.226,19.23,33.643,42.452,33.643,67.471C703.849,402.037,616.766,405.203,509.354,405.203z"/>
</g>
</svg>
