<?xml version="1.0" encoding="utf-8"?>
<!-- Generator: Adobe Illustrator 15.0.0, SVG Export Plug-In . SVG Version: 6.00 Build 0)  -->
<!DOCTYPE svg PUBLIC "-//W3C//DTD SVG 1.1//EN" "http://www.w3.org/Graphics/SVG/1.1/DTD/svg11.dtd">
<svg version="1.1"
	 id="svg2" xmlns:sodipodi="http://sodipodi.sourceforge.net/DTD/sodipodi-0.dtd" xmlns:cc="http://creativecommons.org/ns#" xmlns:svg="http://www.w3.org/2000/svg" xmlns:inkscape="http://www.inkscape.org/namespaces/inkscape" xmlns:rdf="http://www.w3.org/1999/02/22-rdf-syntax-ns#" sodipodi:docname="skype.svg" xmlns:dc="http://purl.org/dc/elements/1.1/" sodipodi:version="0.32" inkscape:version="0.47 r22583" inkscape:output_extension="org.inkscape.output.svg.inkscape"
	 xmlns="http://www.w3.org/2000/svg" xmlns:xlink="http://www.w3.org/1999/xlink" x="0px" y="0px" width="188px" height="188px"
	 viewBox="30.5 30.5 188 188" enable-background="new 30.5 30.5 188 188" xml:space="preserve">
<defs>
	
	
		<inkscape:perspective  inkscape:vp_x="0 : 128 : 1" inkscape:persp3d-origin="128 : 85.333333 : 1" inkscape:vp_z="256 : 128 : 1" id="perspective2915" inkscape:vp_y="0 : 1000 : 0" sodipodi:type="inkscape:persp3d">
		</inkscape:perspective>
</defs>
<sodipodi:namedview  borderopacity="1.0" inkscape:window-x="0" inkscape:window-maximized="0" inkscape:cx="-180.97949" inkscape:cy="123.84505" inkscape:window-y="0" inkscape:window-width="1047" bordercolor="#666666" inkscape:pageopacity="0.0" inkscape:pageshadow="2" inkscape:zoom="0.49497474" showgrid="false" inkscape:document-units="px" inkscape:window-height="538" inkscape:current-layer="layer1" pagecolor="#ffffff" id="base">
	</sodipodi:namedview>
<g>
	<g>
		<path fill="#FFFFFF" d="M202.835,142.846c1.441-6.153,2.226-12.569,2.226-19.176c0-45.189-35.729-81.822-79.802-81.822
			c-6.456,0-12.724,0.807-18.735,2.29c-5.97-2.76-12.625-4.311-19.65-4.311c-25.663,0-46.467,20.578-46.467,45.962
			c0,8.464,2.323,16.387,6.358,23.198c-0.843,4.766-1.307,9.667-1.307,14.683c0,45.189,35.729,81.822,79.802,81.822
			c4.706,0,9.31-0.441,13.792-1.243c6.685,3.683,14.379,5.789,22.574,5.789c25.662,0,46.467-20.578,46.467-45.962
			C208.092,156.415,206.187,149.198,202.835,142.846z M171.601,147.39c-0.26,8.706-3.65,16.377-9.813,22.194
			c-7.606,7.18-18.938,11.074-32.094,11.074c-0.76,0-1.526-0.013-2.298-0.039l-0.137-0.005
			c-21.483-0.984-34.634-12.287-41.882-21.596c-3.902-5.011-3.003-12.236,2.008-16.139c5.01-3.902,12.237-3.004,16.139,2.008
			c6.21,7.975,14.526,12.263,24.718,12.747c7.679,0.249,14.325-1.536,17.759-4.777c1.743-1.646,2.549-3.566,2.612-6.23l0.019-0.421
			c0.337-5.562-2.144-7.619-21.372-12.555c-1.124-0.288-2.255-0.579-3.392-0.876c-14.727-3.739-39.504-10.03-37.869-38.061
			l0.012-0.178c1.523-20.6,21.909-30.742,40.324-29.831l0.925,0.083c15.522,2.035,28.308,8.435,39.089,19.564
			c4.419,4.562,4.304,11.842-0.258,16.261c-4.563,4.418-11.843,4.303-16.262-0.258c-7.01-7.236-14.986-11.279-25.064-12.695
			c-5.181-0.127-15.245,1.704-15.812,8.503c-0.326,5.592-0.386,8.997,20.651,14.338c1.181,0.309,2.281,0.591,3.373,0.871
			c9.114,2.339,17.723,4.549,24.818,9.03C167.467,126.511,172.237,135.839,171.601,147.39z"/>
	</g>
</g>
</svg>
